<?xml version="1.0" encoding="UTF-8"?>
<!-- Generator: visioncortex VTracer 0.6.3 -->
<svg version="1.1" xmlns="http://www.w3.org/2000/svg" width="808" height="1000">
<path d="M0 0 C0.03 1.41 0.03 1.41 0.06 2.84 C0.14 6.37 0.23 9.91 0.32 13.44 C0.36 14.96 0.39 16.48 0.42 18 C0.87 39.39 4.58 56 19.69 72.12 C44.79 95.96 80.61 104.22 113 113 C201.59 137.02 201.59 137.02 221.69 170.84 C233.64 193.09 233.53 219.71 226.75 243.53 C219.65 266.96 205.83 288.84 184 301 C183.01 301 182.02 301 181 301 C181.04 300.31 181.08 299.61 181.12 298.9 C182.74 270.11 181.78 242.52 162.21 219.4 C146.07 201.86 124.91 192.57 102.62 185.31 C101.08 184.8 99.53 184.29 97.98 183.78 C85.92 179.82 73.76 176.26 61.56 172.75 C27.42 162.91 -9.51 150.89 -28.01 117.9 C-40.34 94.31 -41.41 65.62 -33.93 40.41 C-28.52 23.97 -19.28 10.87 -5 1 C-3 0 -3 0 0 0 Z " fill="#000000" transform="translate(198,520)"/>
<path d="M0 0 C10.31 -0.26 20.62 -0.45 30.93 -0.57 C35.72 -0.63 40.5 -0.7 45.29 -0.83 C49.92 -0.95 54.54 -1.02 59.16 -1.04 C60.92 -1.06 62.68 -1.1 64.44 -1.16 C78.23 -1.61 78.23 -1.61 82.58 2.34 C84.4 5.17 85.72 7.89 87 11 C87.96 12.73 88.94 14.45 89.93 16.16 C90.92 17.98 91.9 19.8 92.88 21.62 C93.66 23.08 93.66 23.08 94.45 24.57 C98.92 32.92 103.31 41.31 107.65 49.73 C108.01 50.43 108.36 51.12 108.73 51.84 C114.98 63.96 121.1 76.14 127.17 88.35 C127.82 89.65 127.82 89.65 128.48 90.98 C132.47 99 136.46 107.02 140.44 115.04 C149.77 133.87 159.14 152.57 169.71 170.74 C172.95 176.4 175.94 182.2 178.94 188 C179.54 189.15 180.15 190.31 180.78 191.5 C196.03 220.95 196.03 220.95 191.93 234.55 C183.36 257.32 170.56 284.85 154 303 C153.34 303 152.68 303 152 303 C151.41 301.82 151.41 301.82 150.81 300.62 C147.08 293.14 143.35 285.65 139.61 278.17 C137.69 274.32 135.77 270.48 133.85 266.63 C123.53 245.87 123.53 245.87 112.83 225.3 C108.81 217.73 104.99 210.05 101.16 202.38 C100.81 201.67 100.46 200.97 100.1 200.25 C97.19 194.43 94.3 188.61 91.4 182.79 C88.88 177.74 86.37 172.68 83.84 167.62 C83.49 166.92 83.14 166.22 82.78 165.5 C78.55 157.02 74.25 148.59 69.79 140.23 C65.94 132.96 62.26 125.61 58.59 118.25 C58.27 117.59 57.94 116.94 57.6 116.26 C54.89 110.82 52.18 105.38 49.47 99.94 C47.12 95.21 44.77 90.48 42.41 85.75 C42.08 85.09 41.75 84.44 41.41 83.76 C37.27 75.46 33.05 67.2 28.68 59 C23.48 49.19 18.53 39.25 13.56 29.31 C11.85 25.88 10.12 22.45 8.4 19.02 C7.3 16.84 6.21 14.65 5.12 12.46 C4.34 10.93 4.34 10.93 3.56 9.36 C3.09 8.42 2.62 7.48 2.14 6.52 C1.72 5.69 1.31 4.86 0.88 4.01 C0 2 0 2 0 0 Z " fill="#000000" transform="translate(431,513)"/>
<path d="M0 0 C9.54 -0.02 19.07 -0.04 28.61 -0.05 C33.04 -0.06 37.47 -0.06 41.9 -0.08 C46.19 -0.09 50.47 -0.09 54.76 -0.09 C56.38 -0.1 58.01 -0.1 59.63 -0.11 C69.48 -0.14 79.18 0.13 89 1 C87.56 4.66 85.97 8.13 84.16 11.62 C83.6 12.71 83.04 13.8 82.46 14.92 C81.85 16.08 81.25 17.24 80.62 18.44 C80.31 19.04 80 19.64 79.68 20.26 C75.1 29.07 70.42 37.83 65.64 46.53 C61.29 54.45 57.01 62.41 52.75 70.38 C52.24 71.32 52.24 71.32 51.72 72.29 C49.81 75.86 47.91 79.43 46 83 C44.68 83 43.36 83 42 83 C38.11 79.06 35.6 74.75 33.18 69.79 C32.84 69.1 32.5 68.42 32.15 67.71 C31.05 65.5 29.96 63.28 28.88 61.06 C28.11 59.52 27.35 57.98 26.59 56.44 C24.38 51.97 22.19 47.49 20 43 C19.43 41.84 18.87 40.68 18.28 39.48 C16.85 36.53 15.42 33.58 14 30.62 C13.43 29.43 13.43 29.43 12.84 28.21 C8.4 18.88 4.22 9.43 0 0 Z " fill="#000000" transform="translate(650,513)"/>
<path d="M0 0 C7.55 6.14 12.51 15.67 13.69 25.31 C14.47 34.8 12.44 43.07 6.35 50.5 C-0.36 57.83 -8.37 62.78 -18.45 63.55 C-29.5 63.78 -36.42 61.81 -44.53 54.22 C-52.35 45.86 -54.96 35.84 -54.66 24.56 C-53.72 15.84 -50.18 7.26 -43.27 1.66 C-29.49 -8.02 -14.26 -9.79 0 0 Z " fill="#000000" transform="translate(220.3125,760.6875)"/>
</svg>
